<svg width="1280" height="640" viewBox="0 0 1280 640" fill="none" xmlns="http://www.w3.org/2000/svg" role="img" aria-labelledby="title desc">
  <title id="title">ggmultiplot repository cover</title>
  <desc id="desc">A visual overview showing many statistical plotting styles unified in ggplot2.</desc>
  <defs>
    <linearGradient id="bg" x1="0" y1="0" x2="1280" y2="640" gradientUnits="userSpaceOnUse">
      <stop stop-color="#F8FAFC"/>
      <stop offset="0.55" stop-color="#F5FBF7"/>
      <stop offset="1" stop-color="#FFF7ED"/>
    </linearGradient>
    <linearGradient id="titleGradient" x1="91" y1="177" x2="568" y2="238" gradientUnits="userSpaceOnUse">
      <stop stop-color="#2563EB"/>
      <stop offset="0.48" stop-color="#16A34A"/>
      <stop offset="1" stop-color="#EA580C"/>
    </linearGradient>
    <filter id="shadow" x="-20%" y="-20%" width="140%" height="140%" color-interpolation-filters="sRGB">
      <feDropShadow dx="0" dy="18" stdDeviation="18" flood-color="#0F172A" flood-opacity="0.14"/>
    </filter>
  </defs>
  <rect width="1280" height="640" rx="36" fill="url(#bg)"/>
  <circle cx="1072" cy="122" r="92" fill="#DBEAFE" opacity="0.62"/>
  <circle cx="1165" cy="512" r="110" fill="#FED7AA" opacity="0.46"/>
  <circle cx="170" cy="540" r="92" fill="#DCFCE7" opacity="0.55"/>

  <g transform="translate(82 78)">
    <text x="0" y="58" font-family="Inter, Segoe UI, Arial, sans-serif" font-size="20" font-weight="800" fill="#475569">R package for publication-style figures</text>
    <text x="0" y="142" font-family="Inter, Segoe UI, Arial, sans-serif" font-size="72" font-weight="850" fill="url(#titleGradient)">ggmultiplot</text>
    <text x="4" y="194" font-family="Inter, Segoe UI, Arial, sans-serif" font-size="26" font-weight="650" fill="#334155">One function call. Ten familiar statistical plot styles.</text>
    <g transform="translate(4 244)">
      <rect width="120" height="42" rx="21" fill="#EFF6FF"/>
      <text x="60" y="27" text-anchor="middle" font-family="Inter, Segoe UI, Arial, sans-serif" font-size="15" font-weight="800" fill="#1D4ED8">ggplot2</text>
      <rect x="138" width="128" height="42" rx="21" fill="#ECFDF5"/>
      <text x="202" y="27" text-anchor="middle" font-family="Inter, Segoe UI, Arial, sans-serif" font-size="15" font-weight="800" fill="#047857">10 styles</text>
      <rect x="284" width="140" height="42" rx="21" fill="#FFF7ED"/>
      <text x="354" y="27" text-anchor="middle" font-family="Inter, Segoe UI, Arial, sans-serif" font-size="15" font-weight="800" fill="#C2410C">one API</text>
    </g>
    <g transform="translate(4 342)">
      <text x="0" y="0" font-family="Inter, Segoe UI, Arial, sans-serif" font-size="18" font-weight="700" fill="#475569">Prism · SPSS · OriginPro · Stata · MATLAB</text>
      <text x="0" y="34" font-family="Inter, Segoe UI, Arial, sans-serif" font-size="18" font-weight="700" fill="#475569">Minitab · MedCalc · JMP · SigmaPlot · Academic</text>
    </g>
  </g>

  <g transform="translate(690 80)" filter="url(#shadow)">
    <rect x="0" y="0" width="480" height="480" rx="30" fill="#FFFFFF"/>
    <text x="34" y="52" font-family="Inter, Segoe UI, Arial, sans-serif" font-size="21" font-weight="850" fill="#0F172A">Style switchboard</text>
    <g transform="translate(34 82)">
      <rect width="122" height="92" rx="16" fill="#F8FAFC" stroke="#CBD5E1"/>
      <path d="M18 68L42 45L66 55L104 22" stroke="#2563EB" stroke-width="5" stroke-linecap="round" stroke-linejoin="round"/>
      <text x="18" y="24" font-family="Inter, Segoe UI, Arial, sans-serif" font-size="13" font-weight="800" fill="#334155">Prism</text>
      <rect x="146" width="122" height="92" rx="16" fill="#F8FAFC" stroke="#CBD5E1"/>
      <rect x="166" y="28" width="18" height="42" fill="#4E79A7"/>
      <rect x="196" y="42" width="18" height="28" fill="#F28E2B"/>
      <rect x="226" y="20" width="18" height="50" fill="#59A14F"/>
      <text x="166" y="24" font-family="Inter, Segoe UI, Arial, sans-serif" font-size="13" font-weight="800" fill="#334155">SPSS</text>
      <rect x="292" width="122" height="92" rx="16" fill="#F8FAFC" stroke="#CBD5E1"/>
      <circle cx="318" cy="60" r="8" fill="#000000"/>
      <circle cx="348" cy="38" r="8" fill="#E41A1C"/>
      <circle cx="378" cy="62" r="8" fill="#4DAF4A"/>
      <text x="312" y="24" font-family="Inter, Segoe UI, Arial, sans-serif" font-size="13" font-weight="800" fill="#334155">Origin</text>
    </g>
    <g transform="translate(34 198)">
      <rect width="122" height="92" rx="16" fill="#F8FAFC" stroke="#CBD5E1"/>
      <path d="M18 66C34 20 58 78 104 30" stroke="#1A476F" stroke-width="5" fill="none" stroke-linecap="round"/>
      <text x="18" y="24" font-family="Inter, Segoe UI, Arial, sans-serif" font-size="13" font-weight="800" fill="#334155">Stata</text>
      <rect x="146" width="122" height="92" rx="16" fill="#F8FAFC" stroke="#CBD5E1"/>
      <path d="M166 68L186 36L210 52L246 24" stroke="#0072BD" stroke-width="5" fill="none" stroke-linecap="round" stroke-linejoin="round"/>
      <text x="166" y="24" font-family="Inter, Segoe UI, Arial, sans-serif" font-size="13" font-weight="800" fill="#334155">MATLAB</text>
      <rect x="292" width="122" height="92" rx="16" fill="#F8FAFC" stroke="#CBD5E1"/>
      <path d="M312 70H392" stroke="#CBD5E1" stroke-width="2"/>
      <path d="M318 65L342 38L368 48L396 22" stroke="#111827" stroke-width="4" fill="none" stroke-linecap="round"/>
      <text x="312" y="24" font-family="Inter, Segoe UI, Arial, sans-serif" font-size="13" font-weight="800" fill="#334155">Academic</text>
    </g>
    <g transform="translate(34 334)">
      <rect width="414" height="88" rx="20" fill="#0F172A"/>
      <text x="28" y="34" font-family="Inter, Segoe UI, Arial, sans-serif" font-size="18" font-weight="850" fill="#F8FAFC">ggchoice("prism")</text>
      <text x="28" y="62" font-family="Inter, Segoe UI, Arial, sans-serif" font-size="15" fill="#CBD5E1">theme + colour scale + fill scale, still overridable</text>
      <path d="M328 44H370" stroke="#EF4444" stroke-width="5" stroke-linecap="round"/>
      <path d="M362 30L380 44L362 58" stroke="#EF4444" stroke-width="5" stroke-linecap="round" stroke-linejoin="round"/>
    </g>
  </g>
</svg>
